<svg xmlns="http://www.w3.org/2000/svg" viewBox="-30 -20 1210 770" width="1210" height="770" role="img" aria-label="Architecture decision records (ADRs)"><title>Architecture decision records (ADRs)</title><defs><marker id="ah8b5cf6" viewBox="0 0 10 10" refX="9" refY="5" markerWidth="8" markerHeight="8" orient="auto-start-reverse"><path d="M0,0 L10,5 L0,10 z" fill="#8b5cf6"/></marker><marker id="sah8b5cf6" viewBox="0 0 10 10" refX="9" refY="5" markerWidth="8" markerHeight="8" orient="auto-start-reverse"><path d="M0,0 L10,5 L0,10 z" fill="#8b5cf6"/></marker><marker id="ah1e1e1e" viewBox="0 0 10 10" refX="9" refY="5" markerWidth="8" markerHeight="8" orient="auto-start-reverse"><path d="M0,0 L10,5 L0,10 z" fill="#1e1e1e"/></marker><marker id="sah1e1e1e" viewBox="0 0 10 10" refX="9" refY="5" markerWidth="8" markerHeight="8" orient="auto-start-reverse"><path d="M0,0 L10,5 L0,10 z" fill="#1e1e1e"/></marker></defs><rect x="-30" y="-20" width="1210" height="770" fill="#ffffff"/><text font-family="'Segoe UI', Helvetica, Arial, sans-serif" font-size="28" fill="#1e1e1e" text-anchor="start" xml:space="preserve"><tspan x="302.0" y="32.4">8. Architecture Decision Records (ADRs)</tspan></text><rect x="0" y="80" width="190" height="100" rx="12" fill="#fff3bf" stroke="#f59e0b" stroke-width="2" opacity="1.0"/><text font-family="'Segoe UI', Helvetica, Arial, sans-serif" font-size="18" fill="#1e1e1e" text-anchor="middle" xml:space="preserve"><tspan x="95.0" y="122.8">Decision needed</tspan><tspan x="95.0" y="145.3">(Decision Log)</tspan></text><polyline points="190,130 240,130" fill="none" stroke="#1e1e1e" stroke-width="2" marker-end="url(#ah1e1e1e)"/><rect x="240" y="80" width="190" height="100" rx="12" fill="#a5d8ff" stroke="#4a9eed" stroke-width="2" opacity="1.0"/><text font-family="'Segoe UI', Helvetica, Arial, sans-serif" font-size="18" fill="#1e1e1e" text-anchor="middle" xml:space="preserve"><tspan x="335.0" y="122.8">Draft ADR</tspan><tspan x="335.0" y="145.3">(proposed)</tspan></text><polyline points="430,130 480,130" fill="none" stroke="#1e1e1e" stroke-width="2" marker-end="url(#ah1e1e1e)"/><rect x="480" y="80" width="190" height="100" rx="12" fill="#d0bfff" stroke="#8b5cf6" stroke-width="2" opacity="1.0"/><text font-family="'Segoe UI', Helvetica, Arial, sans-serif" font-size="18" fill="#1e1e1e" text-anchor="middle" xml:space="preserve"><tspan x="575.0" y="111.5">Weekly review</tspan><tspan x="575.0" y="134.1">architect +</tspan><tspan x="575.0" y="156.6">Shalini</tspan></text><polyline points="670,130 720,130" fill="none" stroke="#1e1e1e" stroke-width="2" marker-end="url(#ah1e1e1e)"/><rect x="720" y="80" width="190" height="100" rx="12" fill="#b2f2bb" stroke="#22c55e" stroke-width="2" opacity="1.0"/><text font-family="'Segoe UI', Helvetica, Arial, sans-serif" font-size="20" fill="#1e1e1e" text-anchor="middle" xml:space="preserve"><tspan x="815.0" y="134.5">Accepted</tspan></text><polyline points="910,130 960,130" fill="none" stroke="#1e1e1e" stroke-width="2" marker-end="url(#ah1e1e1e)"/><rect x="960" y="80" width="190" height="100" rx="12" fill="#c3fae8" stroke="#06b6d4" stroke-width="2" opacity="1.0"/><text font-family="'Segoe UI', Helvetica, Arial, sans-serif" font-size="18" fill="#1e1e1e" text-anchor="middle" xml:space="preserve"><tspan x="1055.0" y="111.5">Stored in</tspan><tspan x="1055.0" y="134.1">docs/adr/</tspan><tspan x="1055.0" y="156.6">(token repo)</tspan></text><polyline points="815,180 815,235 335,235 335,180" fill="none" stroke="#8b5cf6" stroke-width="2" stroke-dasharray="8 6" marker-end="url(#ah8b5cf6)"/><rect x="0" y="290" width="390" height="250" rx="12" fill="#fff3bf" stroke="#f59e0b" stroke-width="2" opacity="1.0"/><text font-family="'Segoe UI', Helvetica, Arial, sans-serif" font-size="18" fill="#1e1e1e" text-anchor="middle" xml:space="preserve"><tspan x="195.0" y="351.6">ADR template</tspan><tspan x="195.0" y="374.1"> </tspan><tspan x="195.0" y="396.6">Title | Status | Date | Owners</tspan><tspan x="195.0" y="419.1">Context</tspan><tspan x="195.0" y="441.6">Options considered</tspan><tspan x="195.0" y="464.1">Decision</tspan><tspan x="195.0" y="486.6">Consequences</tspan></text><text font-family="'Segoe UI', Helvetica, Arial, sans-serif" font-size="20" fill="#1e1e1e" text-anchor="start" xml:space="preserve"><tspan x="465.0" y="308.0">Week 4</tspan></text><text font-family="'Segoe UI', Helvetica, Arial, sans-serif" font-size="20" fill="#1e1e1e" text-anchor="start" xml:space="preserve"><tspan x="610.0" y="308.0">Week 5</tspan></text><text font-family="'Segoe UI', Helvetica, Arial, sans-serif" font-size="20" fill="#1e1e1e" text-anchor="start" xml:space="preserve"><tspan x="755.0" y="308.0">Week 6</tspan></text><text font-family="'Segoe UI', Helvetica, Arial, sans-serif" font-size="20" fill="#1e1e1e" text-anchor="start" xml:space="preserve"><tspan x="900.0" y="308.0">Week 7</tspan></text><text font-family="'Segoe UI', Helvetica, Arial, sans-serif" font-size="20" fill="#1e1e1e" text-anchor="start" xml:space="preserve"><tspan x="1045.0" y="308.0">Week 8</tspan></text><rect x="430" y="330" width="140" height="70" rx="12" fill="#d0bfff" stroke="#8b5cf6" stroke-width="2" opacity="1.0"/><text font-family="'Segoe UI', Helvetica, Arial, sans-serif" font-size="18" fill="#1e1e1e" text-anchor="middle" xml:space="preserve"><tspan x="500.0" y="357.8">0001</tspan><tspan x="500.0" y="380.3">Naming</tspan></text><rect x="430" y="410" width="140" height="70" rx="12" fill="#d0bfff" stroke="#8b5cf6" stroke-width="2" opacity="1.0"/><text font-family="'Segoe UI', Helvetica, Arial, sans-serif" font-size="18" fill="#1e1e1e" text-anchor="middle" xml:space="preserve"><tspan x="500.0" y="437.8">0003</tspan><tspan x="500.0" y="460.3">Repo</tspan></text><rect x="575" y="330" width="140" height="70" rx="12" fill="#d0bfff" stroke="#8b5cf6" stroke-width="2" opacity="1.0"/><text font-family="'Segoe UI', Helvetica, Arial, sans-serif" font-size="18" fill="#1e1e1e" text-anchor="middle" xml:space="preserve"><tspan x="645.0" y="357.8">0002</tspan><tspan x="645.0" y="380.3">Export tool</tspan></text><rect x="720" y="330" width="140" height="70" rx="12" fill="#d0bfff" stroke="#8b5cf6" stroke-width="2" opacity="1.0"/><text font-family="'Segoe UI', Helvetica, Arial, sans-serif" font-size="18" fill="#1e1e1e" text-anchor="middle" xml:space="preserve"><tspan x="790.0" y="357.8">0004</tspan><tspan x="790.0" y="380.3">Versioning</tspan></text><rect x="720" y="410" width="140" height="70" rx="12" fill="#d0bfff" stroke="#8b5cf6" stroke-width="2" opacity="1.0"/><text font-family="'Segoe UI', Helvetica, Arial, sans-serif" font-size="18" fill="#1e1e1e" text-anchor="middle" xml:space="preserve"><tspan x="790.0" y="437.8">0005</tspan><tspan x="790.0" y="460.3">Theme load</tspan></text><rect x="865" y="330" width="140" height="70" rx="12" fill="#d0bfff" stroke="#8b5cf6" stroke-width="2" opacity="1.0"/><text font-family="'Segoe UI', Helvetica, Arial, sans-serif" font-size="18" fill="#1e1e1e" text-anchor="middle" xml:space="preserve"><tspan x="935.0" y="357.8">0006</tspan><tspan x="935.0" y="380.3">CSS rules</tspan></text><rect x="865" y="410" width="140" height="70" rx="12" fill="#d0bfff" stroke="#8b5cf6" stroke-width="2" opacity="1.0"/><text font-family="'Segoe UI', Helvetica, Arial, sans-serif" font-size="18" fill="#1e1e1e" text-anchor="middle" xml:space="preserve"><tspan x="935.0" y="437.8">0007</tspan><tspan x="935.0" y="460.3">Grid</tspan></text><rect x="865" y="490" width="140" height="70" rx="12" fill="#d0bfff" stroke="#8b5cf6" stroke-width="2" opacity="1.0"/><text font-family="'Segoe UI', Helvetica, Arial, sans-serif" font-size="18" fill="#1e1e1e" text-anchor="middle" xml:space="preserve"><tspan x="935.0" y="517.8">0008</tspan><tspan x="935.0" y="540.3">Fonts, icons</tspan></text><rect x="1010" y="330" width="140" height="70" rx="12" fill="#d0bfff" stroke="#8b5cf6" stroke-width="2" opacity="1.0"/><text font-family="'Segoe UI', Helvetica, Arial, sans-serif" font-size="18" fill="#1e1e1e" text-anchor="middle" xml:space="preserve"><tspan x="1080.0" y="357.8">0009</tspan><tspan x="1080.0" y="380.3">A11y</tspan></text><text font-family="'Segoe UI', Helvetica, Arial, sans-serif" font-size="16" fill="#757575" text-anchor="start" xml:space="preserve"><tspan x="430.0" y="592.8">Number = ADR id, placed in the week the decision is due</tspan></text><rect x="0" y="630" width="1150" height="90" rx="12" fill="#b2f2bb" stroke="#22c55e" stroke-width="2" opacity="1.0"/><text font-family="'Segoe UI', Helvetica, Arial, sans-serif" font-size="20" fill="#1e1e1e" text-anchor="middle" xml:space="preserve"><tspan x="575.0" y="667.0">Why: multiple teams, 18 sites and a Cloud migration</tspan><tspan x="575.0" y="692.0">→ no repeated debates, faster onboarding, clear audit trail</tspan></text><rect x="472.0" y="221.8" width="206.0" height="26.5" fill="#ffffff" opacity="0.9"/><text font-family="'Segoe UI', Helvetica, Arial, sans-serif" font-size="18" fill="#1e1e1e" text-anchor="middle" xml:space="preserve"><tspan x="575.0" y="239.1">superseded → new ADR</tspan></text></svg>